 <svg  version="1.0" xmlns="http://www.w3.org/2000/svg"  width="300.000000pt" height="300.000000pt" viewBox="0 0 300.000000 300.000000"  preserveAspectRatio="xMidYMid meet">  <g transform="translate(0.000000,300.000000) scale(0.100000,-0.100000)" fill="#f60404" stroke="none"> <path d="M1358 2979 c-288 -20 -606 -154 -828 -348 -253 -222 -403 -464 -486 -786 -28 -106 -29 -119 -29 -350 0 -232 1 -244 29 -350 115 -442 388 -786 783 -984 253 -128 505 -174 818 -149 573 46 1088 456 1270 1012 194 592 2 1247 -479 1630 -313 250 -659 354 -1078 325z m120 -96 c4 -95 42 -292 77 -393 33 -97 101 -235 162 -329 l48 -75 -66 -66 c-36 -37 -79 -89 -94 -116 -16 -27 -30 -51 -31 -52 -1 -2 -35 15 -76 39 -311 180 -596 432 -821 726 l-47 61 73 47 c212 137 494 227 727 234 l45 1 3 -77z m309 46 c190 -36 417 -134 572 -246 2 -2 -3 -11 -11 -20 -55 -64 -118 -230 -125 -334 l-6 -76 -96 -16 c-104 -17 -216 -59 -287 -107 l-45 -30 -43 68 c-140 215 -215 441 -241 721 l-7 74 93 -7 c51 -4 140 -16 196 -27z m-1167 -278 c0 -20 172 -224 285 -336 177 -177 433 -373 608 -465 34 -18 45 -29 40 -40 -42 -94 -73 -233 -73 -325 0 -69 34 -228 59 -276 l21 -39 -23 -14 c-12 -7 -51 -30 -87 -51 -183 -108 -373 -256 -541 -424 -112 -113 -281 -311 -292 -343 -9 -28 -189 143 -285 270 -140 185 -223 368 -273 603 -33 151 -33 420 0 569 67 309 188 530 412 753 118 117 149 142 149 118z m1843 -54 c92 -81 190 -195 263 -304 l57 -87 -24 -18 c-13 -11 -39 -33 -57 -50 -29 -28 -34 -30 -50 -16 -56 50 -203 104 -324 119 l-89 12 6 51 c11 91 45 199 88 279 22 42 45 77 49 77 4 0 41 -28 81 -63z m-242 -429 c0 -47 24 -156 43 -199 5 -12 -4 -20 -35 -34 -23 -11 -67 -43 -97 -72 l-55 -52 -55 47 c-60 51 -212 211 -212 222 0 4 42 29 93 55 95 48 211 83 280 84 l37 1 1 -52z m204 27 c52 -13 171 -66 214 -94 11 -7 9 -18 -10 -58 l-22 -50 -96 5 c-68 3 -114 0 -156 -11 -32 -9 -61 -15 -62 -13 -8 8 -42 146 -48 195 l-6 54 63 -6 c35 -4 90 -13 123 -22z m476 -278 c23 -65 38 -121 35 -124 -8 -8 -6 -10 -45 71 -23 47 -58 94 -112 150 -44 44 -79 84 -79 87 0 4 21 23 47 43 l48 37 33 -73 c18 -40 51 -126 73 -191z m-150 86 c66 -69 112 -130 144 -193 15 -28 6 -22 -51 36 -50 51 -89 80 -139 104 -38 19 -72 35 -74 36 -5 4 42 84 49 84 4 0 36 -30 71 -67z m-854 -62 c65 -65 129 -125 142 -134 l23 -15 -32 -66 -32 -65 -67 25 c-36 14 -82 32 -101 39 -63 23 -230 106 -230 114 0 22 159 221 177 221 2 0 56 -53 120 -119z m694 9 c-1 -8 -4 -45 -5 -82 l-1 -68 -52 -25 c-28 -14 -57 -33 -64 -41 -10 -12 -17 -8 -48 28 -42 48 -111 158 -111 175 0 22 129 41 225 33 47 -4 59 -8 56 -20z m107 -27 c62 -29 183 -142 216 -203 l20 -35 -48 42 c-59 52 -139 83 -211 83 -45 0 -55 3 -60 21 -9 27 4 119 17 119 5 0 35 -12 66 -27z m-386 -55 c18 -34 54 -84 79 -112 l47 -51 -23 -33 c-12 -18 -25 -35 -28 -38 -6 -7 -130 59 -225 118 l-63 41 33 34 c32 33 126 102 140 103 4 0 22 -28 40 -62z m-698 -73 c32 -21 250 -117 319 -140 l57 -19 -7 -36 c-11 -47 -10 -177 0 -217 7 -26 6 -33 -6 -33 -23 0 -232 -86 -316 -130 -41 -22 -79 -36 -82 -32 -16 16 -48 133 -60 216 -17 123 -1 244 52 384 10 26 13 27 43 7z m1184 -39 c82 -42 141 -119 161 -206 l9 -43 -45 7 c-72 10 -158 54 -207 106 -38 41 -96 135 -96 156 0 13 146 -3 178 -20z m-629 -40 c45 -30 111 -67 146 -82 56 -24 64 -31 59 -49 -4 -11 -7 -21 -8 -22 -3 -3 -213 49 -289 72 l-57 17 31 59 c18 32 33 59 34 59 1 0 38 -24 84 -54z m447 2 c16 -50 92 -141 139 -166 11 -6 17 -13 14 -16 -15 -15 -288 142 -289 167 0 10 90 67 106 67 7 0 20 -23 30 -52z m-113 -74 c23 -19 72 -50 109 -67 68 -33 90 -53 41 -37 -16 5 -64 20 -109 34 -44 14 -93 30 -108 35 l-27 11 23 30 c12 16 24 30 26 30 2 0 23 -16 45 -36z m-230 -90 l87 -18 0 -41 0 -42 -67 -12 c-38 -6 -114 -26 -171 -43 -56 -17 -105 -28 -110 -24 -9 9 -10 215 0 237 5 14 16 12 90 -12 45 -14 122 -35 171 -45z m220 10 c45 -14 88 -28 96 -30 8 -2 12 -7 9 -9 -4 -4 -164 21 -195 30 -11 4 -8 35 4 35 2 0 41 -12 86 -26z m2 -49 c131 -17 148 -18 140 -5 -7 11 32 15 100 11 61 -3 82 -9 82 -26 0 -18 -16 -23 -82 -26 -76 -3 -107 0 -100 11 3 6 -2 10 -12 10 -34 -1 -188 -18 -214 -25 -25 -6 -27 -5 -27 29 0 20 1 36 2 36 0 0 51 -7 111 -15z m464 -76 c-20 -85 -81 -165 -159 -205 -34 -17 -180 -33 -180 -20 0 25 67 129 107 168 72 67 132 94 209 97 l32 1 -9 -41z m-360 27 c-2 -3 -47 -18 -99 -35 -90 -29 -109 -29 -110 0 0 3 39 12 88 21 95 16 128 20 121 14z m80 -18 c-2 -2 -35 -19 -74 -38 -38 -19 -86 -49 -106 -67 -20 -18 -39 -33 -42 -33 -3 0 -15 13 -27 30 l-21 30 28 11 c50 21 238 77 242 73 2 -2 2 -5 0 -6z m23 -55 c-51 -50 -74 -82 -87 -120 -11 -29 -23 -53 -27 -53 -13 0 -69 30 -95 50 l-21 17 51 39 c67 52 198 123 244 133 2 1 -28 -29 -65 -66z m-329 17 c4 -16 -12 -28 -102 -75 -58 -31 -123 -70 -143 -86 -20 -16 -39 -29 -42 -29 -3 0 -19 27 -36 59 l-30 60 38 12 c44 15 282 77 298 78 7 1 14 -8 17 -19z m36 -85 l20 -35 -50 -66 c-27 -36 -61 -88 -74 -115 -14 -27 -28 -49 -32 -49 -15 0 -101 62 -136 98 l-38 39 58 38 c59 39 212 125 225 125 3 0 15 -16 27 -35z m-398 -27 c7 -18 21 -45 31 -59 l18 -27 -142 -142 -141 -141 -44 43 c-50 48 -133 159 -133 177 0 7 39 31 88 53 85 41 291 127 303 128 4 0 12 -15 20 -32z m884 -56 c-52 -73 -135 -147 -204 -182 -35 -17 -65 -29 -67 -27 -3 2 -5 35 -7 73 l-2 69 75 6 c82 6 156 37 199 83 40 43 44 30 6 -22z m-349 -35 l41 -19 -1 -56 c0 -31 3 -69 7 -83 7 -27 6 -27 -61 -34 -45 -4 -93 -1 -147 9 -44 9 -81 16 -83 16 -9 0 65 123 104 173 l46 57 27 -22 c15 -13 45 -31 67 -41z m315 -84 c-46 -71 -175 -213 -184 -202 -3 2 -14 23 -26 46 l-21 42 37 12 c60 19 138 74 189 133 27 30 50 53 52 51 2 -2 -19 -39 -47 -82z m74 55 c-41 -135 -72 -221 -103 -288 l-37 -79 -47 36 c-27 21 -48 42 -48 48 1 5 17 22 36 37 52 39 139 152 166 214 23 53 46 75 33 32z m-819 -38 c20 -22 62 -56 94 -76 l57 -35 -20 -57 c-10 -31 -21 -90 -24 -131 l-6 -73 -66 6 c-36 4 -99 18 -141 32 -77 26 -200 91 -200 107 0 10 254 267 263 267 4 0 23 -18 43 -40z m-536 -11 c0 -21 89 -136 138 -180 l49 -44 -45 -65 c-138 -204 -238 -506 -244 -739 l-2 -74 -85 6 c-233 15 -490 102 -694 233 l-68 44 23 33 c102 143 337 389 488 510 104 83 238 176 345 240 85 50 95 54 95 36z m815 -136 c65 -14 134 -13 191 3 17 5 24 0 33 -27 6 -18 18 -40 26 -49 14 -16 13 -19 -7 -32 -88 -58 -222 -105 -324 -114 -60 -5 -74 -4 -74 7 0 29 20 134 35 186 13 45 19 53 33 48 9 -4 49 -13 87 -22z m-461 -188 c53 -25 110 -41 181 -53 l105 -17 0 -49 c0 -89 60 -262 120 -347 12 -16 21 -32 19 -34 -15 -13 -175 -107 -224 -130 -183 -86 -392 -139 -575 -147 l-55 -2 3 75 c10 244 93 498 235 717 l47 73 33 -25 c19 -14 68 -42 111 -61z m795 25 l53 -48 -47 -74 c-82 -126 -155 -208 -308 -348 l-38 -35 -21 25 c-51 61 -108 218 -122 336 l-6 51 67 7 c38 4 95 14 128 22 68 18 197 77 215 99 7 8 15 15 19 15 3 -1 30 -23 60 -50z"/> </g> </svg> 